<svg width="340" height="340" viewBox="0 0 340 340" fill="none" xmlns="http://www.w3.org/2000/svg">
<path fill-rule="evenodd" clip-rule="evenodd" d="M278.952 53H61.0483C52.8167 53.0098 44.9251 56.2842 39.1045 62.1049C33.2839 67.9256 30.0097 75.8172 30 84.0488L30 124.694H310V84.0488C309.989 75.8178 306.714 67.9272 300.894 62.107C295.073 56.2869 287.183 53.0122 278.952 53.0011V53ZM30 139.372V255.658C30.0098 263.89 33.2842 271.781 39.1047 277.602C44.9253 283.422 52.8168 286.697 61.0483 286.706H278.952C287.183 286.695 295.073 283.42 300.894 277.6C306.714 271.78 309.989 263.889 310 255.658V139.372H30ZM235.196 187.149L216.648 205.7L235.195 224.251C235.876 224.932 236.417 225.741 236.786 226.631C237.155 227.521 237.345 228.475 237.345 229.439C237.345 230.403 237.156 231.357 236.787 232.247C236.419 233.138 235.879 233.947 235.197 234.628C234.516 235.31 233.707 235.85 232.817 236.219C231.927 236.588 230.973 236.778 230.009 236.779C229.046 236.779 228.092 236.589 227.201 236.221C226.311 235.852 225.502 235.312 224.82 234.631L206.269 216.08L187.713 234.63C186.337 236.007 184.47 236.78 182.524 236.78C180.577 236.781 178.711 236.008 177.334 234.631C175.958 233.255 175.184 231.389 175.184 229.442C175.184 227.496 175.957 225.629 177.333 224.252L195.89 205.7L177.333 187.148C176.652 186.466 176.111 185.657 175.742 184.767C175.374 183.876 175.184 182.922 175.184 181.958C175.184 180.994 175.374 180.04 175.743 179.15C176.112 178.259 176.653 177.45 177.334 176.769C178.016 176.087 178.825 175.547 179.715 175.178C180.606 174.809 181.56 174.62 182.524 174.62C183.488 174.62 184.442 174.81 185.332 175.179C186.223 175.548 187.032 176.088 187.713 176.77L206.269 195.32L224.82 176.769C225.502 176.088 226.311 175.548 227.201 175.179C228.092 174.811 229.046 174.621 230.009 174.622C230.973 174.622 231.927 174.812 232.817 175.181C233.707 175.55 234.516 176.09 235.197 176.772C235.879 177.454 236.419 178.263 236.787 179.153C237.156 180.043 237.345 180.997 237.345 181.961C237.345 182.925 237.155 183.879 236.786 184.769C236.417 185.659 235.876 186.468 235.195 187.149H235.196ZM158.482 181.933V208.882C158.499 212.559 157.788 216.202 156.393 219.604C154.997 223.005 152.943 226.097 150.35 228.702C147.756 231.308 144.673 233.375 141.278 234.786C137.882 236.197 134.242 236.923 130.566 236.923C126.889 236.923 123.249 236.197 119.854 234.786C116.459 233.375 113.376 231.308 110.782 228.702C108.188 226.097 106.134 223.005 104.739 219.604C103.343 216.202 102.633 212.559 102.649 208.882V181.933C102.649 179.987 103.422 178.121 104.798 176.745C106.174 175.369 108.04 174.595 109.986 174.595C111.932 174.595 113.799 175.369 115.175 176.745C116.551 178.121 117.324 179.987 117.324 181.933V208.882C117.324 212.394 118.719 215.761 121.202 218.244C123.685 220.727 127.052 222.122 130.564 222.122C134.075 222.122 137.443 220.727 139.926 218.244C142.409 215.761 143.804 212.394 143.804 208.882V181.933C143.82 179.997 144.601 178.147 145.975 176.784C147.35 175.421 149.207 174.657 151.143 174.657C153.079 174.657 154.936 175.421 156.31 176.784C157.685 178.147 158.466 179.997 158.482 181.933ZM186.297 96.184C186.297 95.2204 186.486 94.2662 186.855 93.3759C187.224 92.4856 187.764 91.6767 188.446 90.9953C189.127 90.3139 189.936 89.7735 190.826 89.4048C191.716 89.0361 192.671 88.8464 193.634 88.8466H265.356C267.291 88.8633 269.142 89.6439 270.505 91.0185C271.868 92.393 272.632 94.2503 272.632 96.1859C272.632 98.1215 271.868 99.9788 270.505 101.353C269.142 102.728 267.291 103.509 265.356 103.525H193.634C192.67 103.525 191.716 103.335 190.826 102.966C189.935 102.597 189.126 102.057 188.445 101.375C187.763 100.693 187.223 99.8837 186.854 98.9931C186.486 98.1024 186.296 97.1479 186.297 96.184ZM67.3105 96.184C67.3093 95.2204 67.4981 94.266 67.8662 93.3755C68.2343 92.485 68.7744 91.6758 69.4555 90.9943C70.1367 90.3127 70.9456 89.7722 71.836 89.4037C72.7263 89.0352 73.6806 88.8458 74.6441 88.8466H74.6523C76.104 88.847 77.5229 89.2779 78.7296 90.0847C79.9364 90.8916 80.8768 92.0381 81.4319 93.3794C81.987 94.7207 82.1319 96.1965 81.8483 97.6202C81.5647 99.0439 80.8653 100.351 79.8385 101.378C78.8117 102.404 77.5037 103.102 76.0799 103.385C74.6561 103.668 73.1804 103.522 71.8394 102.966C70.4984 102.41 69.3524 101.469 68.5463 100.262C67.7402 99.0548 67.3101 97.6356 67.3105 96.184ZM99.0802 96.184C99.0789 95.2204 99.2677 94.2661 99.6358 93.3756C100.004 92.4852 100.544 91.676 101.225 90.9945C101.906 90.3129 102.715 89.7724 103.605 89.4039C104.495 89.0353 105.45 88.8459 106.413 88.8466H106.425C107.877 88.8476 109.295 89.2791 110.502 90.0863C111.708 90.8936 112.648 92.0404 113.202 93.3817C113.757 94.7231 113.902 96.1988 113.618 97.6222C113.334 99.0457 112.634 100.353 111.607 101.379C110.58 102.405 109.272 103.103 107.848 103.385C106.425 103.668 104.949 103.522 103.608 102.966C102.267 102.41 101.122 101.469 100.316 100.262C99.5097 99.0545 99.0797 97.6355 99.0802 96.184ZM130.845 96.184C130.844 94.2385 131.617 92.3725 132.992 90.9965C134.367 89.6205 136.233 88.8471 138.178 88.8466H138.194C139.646 88.8487 141.064 89.2811 142.269 90.089C143.475 90.8969 144.414 92.044 144.968 93.3855C145.521 94.727 145.665 96.2025 145.38 97.6256C145.096 99.0486 144.396 100.355 143.369 101.381C142.341 102.406 141.033 103.104 139.61 103.386C138.186 103.668 136.711 103.522 135.371 102.965C134.03 102.409 132.885 101.468 132.079 100.261C131.273 99.0541 130.843 97.6352 130.844 96.184H130.845Z" fill="url(#paint0_linear_2611_5250)"/>
<defs>
<linearGradient id="paint0_linear_2611_5250" x1="30" y1="170" x2="310" y2="170" gradientUnits="userSpaceOnUse">
<stop stop-color="#9F33D2"/>
<stop offset="1" stop-color="#3B82F6"/>
</linearGradient>
</defs>
</svg>
